# xmcd CD database file
#
# Track frame offsets:
#	150
#	21742
#	39577
#	61992
#	89102
#	106105
#	126470
#	139195
#	166080
#	187942
#
# Disc length: 2874 seconds
#
# Revision: 1
# Processed by: cddbd v1.4PL0 Copyright (c) Steve Scherf et al.
# Submitted via: CDex 1.50
#
DISCID=8c0b380a
DTITLE=Mon Dyh - Murderer
DYEAR=1980
DGENRE=Rock
TTITLE0=don't you break my heart
TTITLE1=murderer
TTITLE2=trying
TTITLE3=magic piano
TTITLE4=just a minute
TTITLE5=a needle must not lay down
TTITLE6=one second man
TTITLE7=encountered the edge
TTITLE8=all along the watchtower
TTITLE9=have you ever loved a woman
EXTD=YEAR: 1980
EXTT0=
EXTT1=
EXTT2=
EXTT3=
EXTT4=
EXTT5=
EXTT6=
EXTT7=
EXTT8=
EXTT9=
PLAYORDER=
